<mxfile host="app.diagrams.net" modified="2024-02-04T10:09:58.980Z" agent="Mozilla/5.0 (Macintosh; Intel Mac OS X 10_15_7) AppleWebKit/537.36 (KHTML, like Gecko) Chrome/119.0.0.0 Safari/537.36" etag="VczzFPZEN2UwoRMdCRhC" version="23.1.1" type="device">
  <diagram name="Page-1" id="RkrnEesHrvZDDf8rjf4v">
    <mxGraphModel dx="1434" dy="2440" grid="1" gridSize="10" guides="1" tooltips="1" connect="1" arrows="1" fold="1" page="1" pageScale="1" pageWidth="1169" pageHeight="1654" math="0" shadow="0">
      <root>
        <mxCell id="0" />
        <mxCell id="1" parent="0" />
        <mxCell id="ZatKWv2WQP80qz8kFZHf-5" value="AWS Cloud" style="sketch=0;outlineConnect=0;gradientColor=none;html=1;whiteSpace=wrap;fontSize=12;fontStyle=0;shape=mxgraph.aws4.group;grIcon=mxgraph.aws4.group_aws_cloud;strokeColor=#AAB7B8;fillColor=none;verticalAlign=top;align=left;spacingLeft=30;fontColor=#AAB7B8;dashed=0;movable=1;resizable=1;rotatable=1;deletable=1;editable=1;locked=0;connectable=1;" parent="1" vertex="1">
          <mxGeometry x="40" y="-1440" width="880" height="820" as="geometry" />
        </mxCell>
        <mxCell id="ZatKWv2WQP80qz8kFZHf-15" value="Private subnet&lt;br&gt;10.0.10.0/24" style="points=[[0,0],[0.25,0],[0.5,0],[0.75,0],[1,0],[1,0.25],[1,0.5],[1,0.75],[1,1],[0.75,1],[0.5,1],[0.25,1],[0,1],[0,0.75],[0,0.5],[0,0.25]];outlineConnect=0;gradientColor=none;html=1;whiteSpace=wrap;fontSize=12;fontStyle=0;container=1;pointerEvents=0;collapsible=0;recursiveResize=0;shape=mxgraph.aws4.group;grIcon=mxgraph.aws4.group_security_group;grStroke=0;strokeColor=#00A4A6;fillColor=#E6F6F7;verticalAlign=top;align=left;spacingLeft=30;fontColor=#147EBA;dashed=0;" parent="1" vertex="1">
          <mxGeometry x="160" y="-950" width="240" height="270" as="geometry" />
        </mxCell>
        <mxCell id="ZatKWv2WQP80qz8kFZHf-12" value="US-East-1a" style="sketch=0;outlineConnect=0;gradientColor=none;html=1;whiteSpace=wrap;fontSize=12;fontStyle=0;shape=mxgraph.aws4.group;grIcon=mxgraph.aws4.group_availability_zone;strokeColor=#545B64;fillColor=none;verticalAlign=top;align=left;spacingLeft=30;fontColor=#545B64;dashed=1;movable=1;resizable=1;rotatable=1;deletable=1;editable=1;locked=0;connectable=1;" parent="1" vertex="1">
          <mxGeometry x="160" y="-1260" width="240" height="580" as="geometry" />
        </mxCell>
        <mxCell id="ZatKWv2WQP80qz8kFZHf-1" value="US-East-1" style="points=[[0,0],[0.25,0],[0.5,0],[0.75,0],[1,0],[1,0.25],[1,0.5],[1,0.75],[1,1],[0.75,1],[0.5,1],[0.25,1],[0,1],[0,0.75],[0,0.5],[0,0.25]];outlineConnect=0;gradientColor=none;html=1;whiteSpace=wrap;fontSize=12;fontStyle=0;container=1;pointerEvents=0;collapsible=0;recursiveResize=0;shape=mxgraph.aws4.group;grIcon=mxgraph.aws4.group_region;strokeColor=#00A4A6;fillColor=none;verticalAlign=top;align=left;spacingLeft=30;fontColor=#147EBA;dashed=1;movable=1;resizable=1;rotatable=1;deletable=1;editable=1;locked=0;connectable=1;" parent="1" vertex="1">
          <mxGeometry x="80" y="-1370" width="800" height="730" as="geometry" />
        </mxCell>
        <mxCell id="ZatKWv2WQP80qz8kFZHf-2" value="VPC" style="points=[[0,0],[0.25,0],[0.5,0],[0.75,0],[1,0],[1,0.25],[1,0.5],[1,0.75],[1,1],[0.75,1],[0.5,1],[0.25,1],[0,1],[0,0.75],[0,0.5],[0,0.25]];outlineConnect=0;gradientColor=none;html=1;whiteSpace=wrap;fontSize=12;fontStyle=0;container=1;pointerEvents=0;collapsible=0;recursiveResize=0;shape=mxgraph.aws4.group;grIcon=mxgraph.aws4.group_vpc2;strokeColor=#8C4FFF;fillColor=none;verticalAlign=top;align=left;spacingLeft=30;fontColor=#AAB7B8;dashed=0;movable=1;resizable=1;rotatable=1;deletable=1;editable=1;locked=0;connectable=1;" parent="1" vertex="1">
          <mxGeometry x="120" y="-1340" width="720" height="680" as="geometry" />
        </mxCell>
        <mxCell id="ZatKWv2WQP80qz8kFZHf-48" value="" style="outlineConnect=0;dashed=0;verticalLabelPosition=bottom;verticalAlign=top;align=center;html=1;shape=mxgraph.aws3.application_load_balancer;fillColor=#F58534;gradientColor=none;" parent="ZatKWv2WQP80qz8kFZHf-2" vertex="1">
          <mxGeometry x="320" y="80" width="40" height="40" as="geometry" />
        </mxCell>
        <mxCell id="ZatKWv2WQP80qz8kFZHf-49" value="" style="outlineConnect=0;dashed=0;verticalLabelPosition=bottom;verticalAlign=top;align=center;html=1;shape=mxgraph.aws3.application_load_balancer;fillColor=#F58534;gradientColor=none;" parent="ZatKWv2WQP80qz8kFZHf-2" vertex="1">
          <mxGeometry x="320" y="320" width="40" height="40" as="geometry" />
        </mxCell>
        <mxCell id="ZatKWv2WQP80qz8kFZHf-54" value="Asynchronous" style="text;html=1;strokeColor=none;fillColor=none;align=center;verticalAlign=middle;whiteSpace=wrap;rounded=0;" parent="ZatKWv2WQP80qz8kFZHf-2" vertex="1">
          <mxGeometry x="305" y="590" width="80" height="30" as="geometry" />
        </mxCell>
        <mxCell id="ZatKWv2WQP80qz8kFZHf-26" value="" style="sketch=0;outlineConnect=0;fontColor=#232F3E;gradientColor=none;fillColor=#8C4FFF;strokeColor=none;dashed=0;verticalLabelPosition=bottom;verticalAlign=top;align=center;html=1;fontSize=12;fontStyle=0;aspect=fixed;pointerEvents=1;shape=mxgraph.aws4.internet_gateway;" parent="ZatKWv2WQP80qz8kFZHf-2" vertex="1">
          <mxGeometry x="320" y="-20" width="40" height="40" as="geometry" />
        </mxCell>
        <mxCell id="ZatKWv2WQP80qz8kFZHf-67" value="" style="endArrow=classic;startArrow=classic;html=1;rounded=0;exitX=0.5;exitY=0;exitDx=0;exitDy=0;exitPerimeter=0;fillColor=#dae8fc;strokeColor=#6c8ebf;strokeWidth=2;" parent="ZatKWv2WQP80qz8kFZHf-2" source="ZatKWv2WQP80qz8kFZHf-48" target="ZatKWv2WQP80qz8kFZHf-26" edge="1">
          <mxGeometry width="50" height="50" relative="1" as="geometry">
            <mxPoint x="400" y="120" as="sourcePoint" />
            <mxPoint x="450" y="70" as="targetPoint" />
          </mxGeometry>
        </mxCell>
        <mxCell id="ZatKWv2WQP80qz8kFZHf-60" value="ALB" style="text;html=1;strokeColor=none;fillColor=none;align=center;verticalAlign=middle;whiteSpace=wrap;rounded=0;" parent="ZatKWv2WQP80qz8kFZHf-2" vertex="1">
          <mxGeometry x="280" y="70" width="60" height="30" as="geometry" />
        </mxCell>
        <mxCell id="ZatKWv2WQP80qz8kFZHf-71" value="" style="endArrow=classic;startArrow=classic;html=1;rounded=0;fillColor=#dae8fc;strokeColor=#6c8ebf;strokeWidth=2;" parent="ZatKWv2WQP80qz8kFZHf-2" edge="1">
          <mxGeometry width="50" height="50" relative="1" as="geometry">
            <mxPoint x="170" y="570" as="sourcePoint" />
            <mxPoint x="340" y="530" as="targetPoint" />
            <Array as="points">
              <mxPoint x="340" y="570" />
            </Array>
          </mxGeometry>
        </mxCell>
        <mxCell id="ZatKWv2WQP80qz8kFZHf-13" value="US-East-1b" style="sketch=0;outlineConnect=0;gradientColor=none;html=1;whiteSpace=wrap;fontSize=12;fontStyle=0;shape=mxgraph.aws4.group;grIcon=mxgraph.aws4.group_availability_zone;strokeColor=#545B64;fillColor=none;verticalAlign=top;align=left;spacingLeft=30;fontColor=#545B64;dashed=1;movable=1;resizable=1;rotatable=1;deletable=1;editable=1;locked=0;connectable=1;" parent="1" vertex="1">
          <mxGeometry x="520" y="-1260" width="240" height="580" as="geometry" />
        </mxCell>
        <mxCell id="ZatKWv2WQP80qz8kFZHf-21" value="Private subnet&lt;br&gt;10.0.20.0/24" style="points=[[0,0],[0.25,0],[0.5,0],[0.75,0],[1,0],[1,0.25],[1,0.5],[1,0.75],[1,1],[0.75,1],[0.5,1],[0.25,1],[0,1],[0,0.75],[0,0.5],[0,0.25]];outlineConnect=0;gradientColor=none;html=1;whiteSpace=wrap;fontSize=12;fontStyle=0;container=1;pointerEvents=0;collapsible=0;recursiveResize=0;shape=mxgraph.aws4.group;grIcon=mxgraph.aws4.group_security_group;grStroke=0;strokeColor=#00A4A6;fillColor=#E6F6F7;verticalAlign=top;align=left;spacingLeft=30;fontColor=#147EBA;dashed=0;" parent="1" vertex="1">
          <mxGeometry x="520" y="-950" width="240" height="270" as="geometry" />
        </mxCell>
        <mxCell id="ZatKWv2WQP80qz8kFZHf-63" value="Read- RDS PostgreSQL&lt;br&gt;m5.4xLarge" style="text;html=1;strokeColor=none;fillColor=none;align=center;verticalAlign=middle;whiteSpace=wrap;rounded=0;" parent="ZatKWv2WQP80qz8kFZHf-21" vertex="1">
          <mxGeometry x="50" y="232" width="140.01" height="30" as="geometry" />
        </mxCell>
        <mxCell id="ZatKWv2WQP80qz8kFZHf-76" value="" style="endArrow=classic;startArrow=classic;html=1;rounded=0;fillColor=#d5e8d4;strokeColor=#82b366;strokeWidth=2;" parent="ZatKWv2WQP80qz8kFZHf-21" target="ZatKWv2WQP80qz8kFZHf-25" edge="1">
          <mxGeometry width="50" height="50" relative="1" as="geometry">
            <mxPoint x="94.75" y="100" as="sourcePoint" />
            <mxPoint x="144.75" y="50" as="targetPoint" />
            <Array as="points">
              <mxPoint x="120" y="100" />
            </Array>
          </mxGeometry>
        </mxCell>
        <mxCell id="ZatKWv2WQP80qz8kFZHf-6" value="&lt;h1&gt;Chau Huu Phat (Phillip Chau)&lt;/h1&gt;" style="text;html=1;strokeColor=none;fillColor=none;spacing=5;spacingTop=-20;whiteSpace=wrap;overflow=hidden;rounded=0;" parent="1" vertex="1">
          <mxGeometry x="40" y="-610" width="190" height="70" as="geometry" />
        </mxCell>
        <mxCell id="ZatKWv2WQP80qz8kFZHf-7" value="" style="sketch=0;outlineConnect=0;fontColor=#232F3E;gradientColor=none;fillColor=#232F3D;strokeColor=none;dashed=0;verticalLabelPosition=bottom;verticalAlign=top;align=center;html=1;fontSize=12;fontStyle=0;aspect=fixed;pointerEvents=1;shape=mxgraph.aws4.user;" parent="1" vertex="1">
          <mxGeometry x="160" y="-1620" width="78" height="78" as="geometry" />
        </mxCell>
        <mxCell id="ZatKWv2WQP80qz8kFZHf-8" value="" style="shadow=0;dashed=0;html=1;strokeColor=none;fillColor=#4495D1;labelPosition=center;verticalLabelPosition=bottom;verticalAlign=top;align=center;outlineConnect=0;shape=mxgraph.veeam.one_client;" parent="1" vertex="1">
          <mxGeometry x="394" y="-1611.8" width="90.8" height="61.6" as="geometry" />
        </mxCell>
        <mxCell id="ZatKWv2WQP80qz8kFZHf-9" value="" style="endArrow=classic;html=1;rounded=0;fillColor=#dae8fc;strokeColor=#6c8ebf;strokeWidth=2;" parent="1" target="ZatKWv2WQP80qz8kFZHf-8" edge="1">
          <mxGeometry width="50" height="50" relative="1" as="geometry">
            <mxPoint x="238" y="-1580" as="sourcePoint" />
            <mxPoint x="288" y="-1630" as="targetPoint" />
          </mxGeometry>
        </mxCell>
        <mxCell id="ZatKWv2WQP80qz8kFZHf-10" value="" style="sketch=0;points=[[0,0,0],[0.25,0,0],[0.5,0,0],[0.75,0,0],[1,0,0],[0,1,0],[0.25,1,0],[0.5,1,0],[0.75,1,0],[1,1,0],[0,0.25,0],[0,0.5,0],[0,0.75,0],[1,0.25,0],[1,0.5,0],[1,0.75,0]];outlineConnect=0;fontColor=#232F3E;fillColor=#8C4FFF;strokeColor=#ffffff;dashed=0;verticalLabelPosition=bottom;verticalAlign=top;align=center;html=1;fontSize=12;fontStyle=0;aspect=fixed;shape=mxgraph.aws4.resourceIcon;resIcon=mxgraph.aws4.route_53;" parent="1" vertex="1">
          <mxGeometry x="420" y="-1460" width="40" height="40" as="geometry" />
        </mxCell>
        <mxCell id="ZatKWv2WQP80qz8kFZHf-11" value="" style="endArrow=classic;startArrow=classic;html=1;rounded=0;exitX=0.5;exitY=0;exitDx=0;exitDy=0;exitPerimeter=0;fillColor=#dae8fc;strokeColor=#6c8ebf;strokeWidth=2;" parent="1" source="ZatKWv2WQP80qz8kFZHf-10" target="ZatKWv2WQP80qz8kFZHf-8" edge="1">
          <mxGeometry width="50" height="50" relative="1" as="geometry">
            <mxPoint x="435" y="-1430" as="sourcePoint" />
            <mxPoint x="490" y="-1200" as="targetPoint" />
          </mxGeometry>
        </mxCell>
        <mxCell id="ZatKWv2WQP80qz8kFZHf-14" value="Public subnet&lt;br&gt;10.0.1.0/24" style="points=[[0,0],[0.25,0],[0.5,0],[0.75,0],[1,0],[1,0.25],[1,0.5],[1,0.75],[1,1],[0.75,1],[0.5,1],[0.25,1],[0,1],[0,0.75],[0,0.5],[0,0.25]];outlineConnect=0;gradientColor=none;html=1;whiteSpace=wrap;fontSize=12;fontStyle=0;container=1;pointerEvents=0;collapsible=0;recursiveResize=0;shape=mxgraph.aws4.group;grIcon=mxgraph.aws4.group_security_group;grStroke=0;strokeColor=#7AA116;fillColor=#F2F6E8;verticalAlign=top;align=left;spacingLeft=30;fontColor=#248814;dashed=0;" parent="1" vertex="1">
          <mxGeometry x="160" y="-1220" width="240" height="200" as="geometry" />
        </mxCell>
        <mxCell id="ZatKWv2WQP80qz8kFZHf-23" value="NAT GW with Elastic IP" style="text;html=1;strokeColor=none;fillColor=none;align=center;verticalAlign=middle;whiteSpace=wrap;rounded=0;" parent="ZatKWv2WQP80qz8kFZHf-14" vertex="1">
          <mxGeometry x="20" y="165" width="80" height="30" as="geometry" />
        </mxCell>
        <mxCell id="ZatKWv2WQP80qz8kFZHf-50" value="" style="outlineConnect=0;dashed=0;verticalLabelPosition=bottom;verticalAlign=top;align=center;html=1;shape=mxgraph.aws3.elastic_ip;fillColor=#F58534;gradientColor=none;" parent="ZatKWv2WQP80qz8kFZHf-14" vertex="1">
          <mxGeometry x="105.88" y="139" width="28.25" height="11" as="geometry" />
        </mxCell>
        <mxCell id="ZatKWv2WQP80qz8kFZHf-77" value="" style="endArrow=classic;startArrow=classic;html=1;rounded=0;entryX=1;entryY=1;entryDx=0;entryDy=0;fillColor=#d5e8d4;strokeColor=#82b366;strokeWidth=2;" parent="ZatKWv2WQP80qz8kFZHf-14" target="ZatKWv2WQP80qz8kFZHf-27" edge="1">
          <mxGeometry width="50" height="50" relative="1" as="geometry">
            <mxPoint x="120" y="139" as="sourcePoint" />
            <mxPoint x="170" y="89" as="targetPoint" />
            <Array as="points">
              <mxPoint x="120" y="-120" />
            </Array>
          </mxGeometry>
        </mxCell>
        <mxCell id="ZatKWv2WQP80qz8kFZHf-16" value="Public subnet&lt;br&gt;10.0.2.0/24" style="points=[[0,0],[0.25,0],[0.5,0],[0.75,0],[1,0],[1,0.25],[1,0.5],[1,0.75],[1,1],[0.75,1],[0.5,1],[0.25,1],[0,1],[0,0.75],[0,0.5],[0,0.25]];outlineConnect=0;gradientColor=none;html=1;whiteSpace=wrap;fontSize=12;fontStyle=0;container=1;pointerEvents=0;collapsible=0;recursiveResize=0;shape=mxgraph.aws4.group;grIcon=mxgraph.aws4.group_security_group;grStroke=0;strokeColor=#7AA116;fillColor=#F2F6E8;verticalAlign=top;align=left;spacingLeft=30;fontColor=#248814;dashed=0;" parent="1" vertex="1">
          <mxGeometry x="520" y="-1220" width="240" height="200" as="geometry" />
        </mxCell>
        <mxCell id="ZatKWv2WQP80qz8kFZHf-24" value="NAT GW with Elastic IP" style="text;html=1;strokeColor=none;fillColor=none;align=center;verticalAlign=middle;whiteSpace=wrap;rounded=0;" parent="ZatKWv2WQP80qz8kFZHf-16" vertex="1">
          <mxGeometry x="140" y="170" width="80" height="30" as="geometry" />
        </mxCell>
        <mxCell id="ZatKWv2WQP80qz8kFZHf-25" value="" style="sketch=0;outlineConnect=0;fontColor=#232F3E;gradientColor=none;fillColor=#8C4FFF;strokeColor=none;dashed=0;verticalLabelPosition=bottom;verticalAlign=top;align=center;html=1;fontSize=12;fontStyle=0;aspect=fixed;pointerEvents=1;shape=mxgraph.aws4.nat_gateway;" parent="ZatKWv2WQP80qz8kFZHf-16" vertex="1">
          <mxGeometry x="100" y="160" width="40" height="40" as="geometry" />
        </mxCell>
        <mxCell id="ZatKWv2WQP80qz8kFZHf-33" value="" style="outlineConnect=0;dashed=0;verticalLabelPosition=bottom;verticalAlign=top;align=center;html=1;shape=mxgraph.aws3.ec2;fillColor=#F58534;gradientColor=none;" parent="ZatKWv2WQP80qz8kFZHf-16" vertex="1">
          <mxGeometry x="20" y="60" width="40" height="50" as="geometry" />
        </mxCell>
        <mxCell id="ZatKWv2WQP80qz8kFZHf-78" value="" style="endArrow=classic;startArrow=classic;html=1;rounded=0;fillColor=#d5e8d4;strokeColor=#82b366;strokeWidth=2;" parent="ZatKWv2WQP80qz8kFZHf-16" target="ZatKWv2WQP80qz8kFZHf-26" edge="1">
          <mxGeometry width="50" height="50" relative="1" as="geometry">
            <mxPoint x="120" y="140" as="sourcePoint" />
            <mxPoint x="-30" y="-130" as="targetPoint" />
            <Array as="points">
              <mxPoint x="120" y="-120" />
            </Array>
          </mxGeometry>
        </mxCell>
        <mxCell id="ZatKWv2WQP80qz8kFZHf-22" value="" style="sketch=0;outlineConnect=0;fontColor=#232F3E;gradientColor=none;fillColor=#8C4FFF;strokeColor=none;dashed=0;verticalLabelPosition=bottom;verticalAlign=top;align=center;html=1;fontSize=12;fontStyle=0;aspect=fixed;pointerEvents=1;shape=mxgraph.aws4.nat_gateway;" parent="1" vertex="1">
          <mxGeometry x="260" y="-1060" width="40" height="40" as="geometry" />
        </mxCell>
        <mxCell id="ZatKWv2WQP80qz8kFZHf-27" value="Internet Gateway" style="text;html=1;strokeColor=none;fillColor=none;align=center;verticalAlign=middle;whiteSpace=wrap;rounded=0;" parent="1" vertex="1">
          <mxGeometry x="380" y="-1370" width="60" height="30" as="geometry" />
        </mxCell>
        <mxCell id="ZatKWv2WQP80qz8kFZHf-30" value="" style="sketch=0;points=[[0,0,0],[0.25,0,0],[0.5,0,0],[0.75,0,0],[1,0,0],[0,1,0],[0.25,1,0],[0.5,1,0],[0.75,1,0],[1,1,0],[0,0.25,0],[0,0.5,0],[0,0.75,0],[1,0.25,0],[1,0.5,0],[1,0.75,0]];outlineConnect=0;fontColor=#232F3E;fillColor=#7AA116;strokeColor=#ffffff;dashed=0;verticalLabelPosition=bottom;verticalAlign=top;align=center;html=1;fontSize=12;fontStyle=0;aspect=fixed;shape=mxgraph.aws4.resourceIcon;resIcon=mxgraph.aws4.s3;" parent="1" vertex="1">
          <mxGeometry x="680" y="-1340" width="40" height="40" as="geometry" />
        </mxCell>
        <mxCell id="ZatKWv2WQP80qz8kFZHf-31" value="" style="sketch=0;points=[[0,0,0],[0.25,0,0],[0.5,0,0],[0.75,0,0],[1,0,0],[0,1,0],[0.25,1,0],[0.5,1,0],[0.75,1,0],[1,1,0],[0,0.25,0],[0,0.5,0],[0,0.75,0],[1,0.25,0],[1,0.5,0],[1,0.75,0]];outlineConnect=0;fontColor=#232F3E;fillColor=#8C4FFF;strokeColor=#ffffff;dashed=0;verticalLabelPosition=bottom;verticalAlign=top;align=center;html=1;fontSize=12;fontStyle=0;aspect=fixed;shape=mxgraph.aws4.resourceIcon;resIcon=mxgraph.aws4.cloudfront;" parent="1" vertex="1">
          <mxGeometry x="550" y="-1458" width="38" height="38" as="geometry" />
        </mxCell>
        <mxCell id="ZatKWv2WQP80qz8kFZHf-32" value="" style="outlineConnect=0;dashed=0;verticalLabelPosition=bottom;verticalAlign=top;align=center;html=1;shape=mxgraph.aws3.ec2;fillColor=#F58534;gradientColor=none;" parent="1" vertex="1">
          <mxGeometry x="330" y="-1160" width="40" height="50" as="geometry" />
        </mxCell>
        <mxCell id="ZatKWv2WQP80qz8kFZHf-37" value="" style="rounded=1;arcSize=10;dashed=1;fillColor=none;gradientColor=none;dashPattern=8 3 1 3;strokeWidth=2;" parent="1" vertex="1">
          <mxGeometry x="310" y="-1180" width="300" height="90" as="geometry" />
        </mxCell>
        <mxCell id="ZatKWv2WQP80qz8kFZHf-38" value="Auto-Scaling-Group-WEB" style="text;html=1;strokeColor=none;fillColor=none;align=center;verticalAlign=middle;whiteSpace=wrap;rounded=0;" parent="1" vertex="1">
          <mxGeometry x="310" y="-1180" width="150" height="30" as="geometry" />
        </mxCell>
        <mxCell id="ZatKWv2WQP80qz8kFZHf-43" value="" style="group;movable=1;resizable=1;rotatable=1;deletable=1;editable=1;locked=0;connectable=1;" parent="1" vertex="1" connectable="0">
          <mxGeometry x="315" y="-900" width="305" height="90" as="geometry" />
        </mxCell>
        <mxCell id="ZatKWv2WQP80qz8kFZHf-39" value="" style="outlineConnect=0;dashed=0;verticalLabelPosition=bottom;verticalAlign=top;align=center;html=1;shape=mxgraph.aws3.ec2;fillColor=#F58534;gradientColor=none;" parent="ZatKWv2WQP80qz8kFZHf-43" vertex="1">
          <mxGeometry x="230" y="20" width="40" height="50" as="geometry" />
        </mxCell>
        <mxCell id="ZatKWv2WQP80qz8kFZHf-40" value="" style="outlineConnect=0;dashed=0;verticalLabelPosition=bottom;verticalAlign=top;align=center;html=1;shape=mxgraph.aws3.ec2;fillColor=#F58534;gradientColor=none;" parent="ZatKWv2WQP80qz8kFZHf-43" vertex="1">
          <mxGeometry x="20" y="20" width="40" height="50" as="geometry" />
        </mxCell>
        <mxCell id="ZatKWv2WQP80qz8kFZHf-41" value="" style="rounded=1;arcSize=10;dashed=1;fillColor=none;gradientColor=none;dashPattern=8 3 1 3;strokeWidth=2;" parent="ZatKWv2WQP80qz8kFZHf-43" vertex="1">
          <mxGeometry width="300" height="90" as="geometry" />
        </mxCell>
        <mxCell id="ZatKWv2WQP80qz8kFZHf-42" value="Auto-Scaling-Group-Application" style="text;html=1;strokeColor=none;fillColor=none;align=center;verticalAlign=middle;whiteSpace=wrap;rounded=0;" parent="ZatKWv2WQP80qz8kFZHf-43" vertex="1">
          <mxGeometry width="190" height="30" as="geometry" />
        </mxCell>
        <mxCell id="ZatKWv2WQP80qz8kFZHf-58" value="2 x c6g.xLarge" style="text;html=1;strokeColor=none;fillColor=none;align=center;verticalAlign=middle;whiteSpace=wrap;rounded=0;" parent="ZatKWv2WQP80qz8kFZHf-43" vertex="1">
          <mxGeometry x="-15" y="60" width="110" height="30" as="geometry" />
        </mxCell>
        <mxCell id="ZatKWv2WQP80qz8kFZHf-59" value="2 x c6g.xLarge" style="text;html=1;strokeColor=none;fillColor=none;align=center;verticalAlign=middle;whiteSpace=wrap;rounded=0;" parent="ZatKWv2WQP80qz8kFZHf-43" vertex="1">
          <mxGeometry x="195" y="60" width="110" height="30" as="geometry" />
        </mxCell>
        <mxCell id="ZatKWv2WQP80qz8kFZHf-46" value="" style="outlineConnect=0;dashed=0;verticalLabelPosition=bottom;verticalAlign=top;align=center;html=1;shape=mxgraph.aws3.rds_db_instance;fillColor=#2E73B8;gradientColor=none;" parent="1" vertex="1">
          <mxGeometry x="238" y="-790" width="49.5" height="66" as="geometry" />
        </mxCell>
        <mxCell id="ZatKWv2WQP80qz8kFZHf-47" value="" style="outlineConnect=0;dashed=0;verticalLabelPosition=bottom;verticalAlign=top;align=center;html=1;shape=mxgraph.aws3.rds_db_instance_read_replica;fillColor=#2E73B8;gradientColor=none;" parent="1" vertex="1">
          <mxGeometry x="615.25" y="-790" width="49.5" height="66" as="geometry" />
        </mxCell>
        <mxCell id="ZatKWv2WQP80qz8kFZHf-51" value="" style="outlineConnect=0;dashed=0;verticalLabelPosition=bottom;verticalAlign=top;align=center;html=1;shape=mxgraph.aws3.elastic_ip;fillColor=#F58534;gradientColor=none;" parent="1" vertex="1">
          <mxGeometry x="625.87" y="-1080" width="28.25" height="11" as="geometry" />
        </mxCell>
        <mxCell id="ZatKWv2WQP80qz8kFZHf-53" value="" style="endArrow=classic;html=1;rounded=0;strokeWidth=2;dashed=1;dashPattern=1 1;fillColor=#ffe6cc;strokeColor=#d79b00;" parent="1" edge="1">
          <mxGeometry width="50" height="50" relative="1" as="geometry">
            <mxPoint x="290" y="-760" as="sourcePoint" />
            <mxPoint x="610" y="-760" as="targetPoint" />
          </mxGeometry>
        </mxCell>
        <mxCell id="ZatKWv2WQP80qz8kFZHf-55" value="Master-RDS PostgreSQL&lt;br&gt;m5.4xLarge" style="text;html=1;strokeColor=none;fillColor=none;align=center;verticalAlign=middle;whiteSpace=wrap;rounded=0;" parent="1" vertex="1">
          <mxGeometry x="187.75" y="-718" width="150" height="30" as="geometry" />
        </mxCell>
        <mxCell id="ZatKWv2WQP80qz8kFZHf-56" value="2 x c6g.xLarge" style="text;html=1;strokeColor=none;fillColor=none;align=center;verticalAlign=middle;whiteSpace=wrap;rounded=0;" parent="1" vertex="1">
          <mxGeometry x="300" y="-1120" width="110" height="30" as="geometry" />
        </mxCell>
        <mxCell id="ZatKWv2WQP80qz8kFZHf-57" value="2 x c6g.xLarge" style="text;html=1;strokeColor=none;fillColor=none;align=center;verticalAlign=middle;whiteSpace=wrap;rounded=0;" parent="1" vertex="1">
          <mxGeometry x="505.25" y="-1120" width="110" height="30" as="geometry" />
        </mxCell>
        <mxCell id="ZatKWv2WQP80qz8kFZHf-61" value="Internal ALB" style="text;html=1;strokeColor=none;fillColor=none;align=center;verticalAlign=middle;whiteSpace=wrap;rounded=0;" parent="1" vertex="1">
          <mxGeometry x="394" y="-1030" width="60" height="30" as="geometry" />
        </mxCell>
        <mxCell id="ZatKWv2WQP80qz8kFZHf-62" value="S3 Bucket" style="text;html=1;strokeColor=none;fillColor=none;align=center;verticalAlign=middle;whiteSpace=wrap;rounded=0;" parent="1" vertex="1">
          <mxGeometry x="720" y="-1335" width="60" height="30" as="geometry" />
        </mxCell>
        <mxCell id="ZatKWv2WQP80qz8kFZHf-64" value="" style="endArrow=classic;html=1;rounded=0;exitX=1;exitY=0.5;exitDx=0;exitDy=0;exitPerimeter=0;entryX=0;entryY=0.5;entryDx=0;entryDy=0;entryPerimeter=0;fillColor=#dae8fc;strokeColor=#6c8ebf;strokeWidth=2;" parent="1" source="ZatKWv2WQP80qz8kFZHf-10" target="ZatKWv2WQP80qz8kFZHf-31" edge="1">
          <mxGeometry width="50" height="50" relative="1" as="geometry">
            <mxPoint x="520" y="-1290" as="sourcePoint" />
            <mxPoint x="570" y="-1340" as="targetPoint" />
          </mxGeometry>
        </mxCell>
        <mxCell id="ZatKWv2WQP80qz8kFZHf-65" value="" style="endArrow=classic;startArrow=classic;html=1;rounded=0;entryX=1;entryY=0.5;entryDx=0;entryDy=0;entryPerimeter=0;exitX=0.5;exitY=0;exitDx=0;exitDy=0;exitPerimeter=0;fillColor=#dae8fc;strokeColor=#6c8ebf;strokeWidth=2;" parent="1" source="ZatKWv2WQP80qz8kFZHf-30" target="ZatKWv2WQP80qz8kFZHf-31" edge="1">
          <mxGeometry width="50" height="50" relative="1" as="geometry">
            <mxPoint x="520" y="-1290" as="sourcePoint" />
            <mxPoint x="570" y="-1340" as="targetPoint" />
            <Array as="points">
              <mxPoint x="700" y="-1440" />
            </Array>
          </mxGeometry>
        </mxCell>
        <mxCell id="ZatKWv2WQP80qz8kFZHf-66" value="" style="endArrow=classic;startArrow=classic;html=1;rounded=0;entryX=0.5;entryY=1;entryDx=0;entryDy=0;entryPerimeter=0;fillColor=#dae8fc;strokeColor=#6c8ebf;strokeWidth=2;" parent="1" source="ZatKWv2WQP80qz8kFZHf-26" target="ZatKWv2WQP80qz8kFZHf-31" edge="1">
          <mxGeometry width="50" height="50" relative="1" as="geometry">
            <mxPoint x="520" y="-1290" as="sourcePoint" />
            <mxPoint x="570" y="-1340" as="targetPoint" />
            <Array as="points">
              <mxPoint x="461" y="-1360" />
              <mxPoint x="460" y="-1400" />
              <mxPoint x="570" y="-1400" />
            </Array>
          </mxGeometry>
        </mxCell>
        <mxCell id="ZatKWv2WQP80qz8kFZHf-68" value="" style="endArrow=classic;startArrow=classic;html=1;rounded=0;entryX=0.5;entryY=1;entryDx=0;entryDy=0;entryPerimeter=0;exitX=1;exitY=0;exitDx=0;exitDy=0;fillColor=#dae8fc;strokeColor=#6c8ebf;strokeWidth=2;" parent="1" source="ZatKWv2WQP80qz8kFZHf-38" target="ZatKWv2WQP80qz8kFZHf-48" edge="1">
          <mxGeometry width="50" height="50" relative="1" as="geometry">
            <mxPoint x="520" y="-1130" as="sourcePoint" />
            <mxPoint x="570" y="-1180" as="targetPoint" />
          </mxGeometry>
        </mxCell>
        <mxCell id="ZatKWv2WQP80qz8kFZHf-69" value="" style="endArrow=classic;startArrow=classic;html=1;rounded=0;exitX=0.5;exitY=0;exitDx=0;exitDy=0;exitPerimeter=0;entryX=0.5;entryY=1;entryDx=0;entryDy=0;fillColor=#dae8fc;strokeColor=#6c8ebf;strokeWidth=2;" parent="1" source="ZatKWv2WQP80qz8kFZHf-49" target="ZatKWv2WQP80qz8kFZHf-37" edge="1">
          <mxGeometry width="50" height="50" relative="1" as="geometry">
            <mxPoint x="520" y="-1050" as="sourcePoint" />
            <mxPoint x="570" y="-1100" as="targetPoint" />
          </mxGeometry>
        </mxCell>
        <mxCell id="ZatKWv2WQP80qz8kFZHf-70" value="" style="endArrow=classic;startArrow=classic;html=1;rounded=0;entryX=0.5;entryY=1;entryDx=0;entryDy=0;entryPerimeter=0;exitX=0.764;exitY=0.075;exitDx=0;exitDy=0;exitPerimeter=0;fillColor=#dae8fc;strokeColor=#6c8ebf;strokeWidth=2;" parent="1" source="ZatKWv2WQP80qz8kFZHf-42" target="ZatKWv2WQP80qz8kFZHf-49" edge="1">
          <mxGeometry width="50" height="50" relative="1" as="geometry">
            <mxPoint x="460" y="-910" as="sourcePoint" />
            <mxPoint x="570" y="-1000" as="targetPoint" />
          </mxGeometry>
        </mxCell>
        <mxCell id="ZatKWv2WQP80qz8kFZHf-73" value="" style="endArrow=classic;startArrow=classic;html=1;rounded=0;fillColor=#dae8fc;strokeColor=#6c8ebf;strokeWidth=2;" parent="1" edge="1">
          <mxGeometry width="50" height="50" relative="1" as="geometry">
            <mxPoint x="60" y="-500" as="sourcePoint" />
            <mxPoint x="170" y="-500" as="targetPoint" />
          </mxGeometry>
        </mxCell>
        <mxCell id="ZatKWv2WQP80qz8kFZHf-74" value="&lt;font style=&quot;font-size: 16px;&quot;&gt;&lt;b&gt;Network-In&lt;/b&gt;&lt;/font&gt;" style="text;html=1;strokeColor=none;fillColor=none;align=center;verticalAlign=middle;whiteSpace=wrap;rounded=0;" parent="1" vertex="1">
          <mxGeometry x="187.75" y="-520" width="150" height="30" as="geometry" />
        </mxCell>
        <mxCell id="ZatKWv2WQP80qz8kFZHf-75" value="" style="endArrow=classic;startArrow=classic;html=1;rounded=0;exitX=0;exitY=0.5;exitDx=0;exitDy=0;fillColor=#d5e8d4;strokeColor=#82b366;strokeWidth=2;" parent="1" source="ZatKWv2WQP80qz8kFZHf-41" target="ZatKWv2WQP80qz8kFZHf-22" edge="1">
          <mxGeometry width="50" height="50" relative="1" as="geometry">
            <mxPoint x="150" y="-950" as="sourcePoint" />
            <mxPoint x="200" y="-1000" as="targetPoint" />
            <Array as="points">
              <mxPoint x="280" y="-855" />
            </Array>
          </mxGeometry>
        </mxCell>
        <mxCell id="ZatKWv2WQP80qz8kFZHf-79" value="" style="endArrow=classic;startArrow=classic;html=1;rounded=0;fillColor=#d5e8d4;strokeColor=#82b366;strokeWidth=2;" parent="1" edge="1">
          <mxGeometry width="50" height="50" relative="1" as="geometry">
            <mxPoint x="60" y="-460" as="sourcePoint" />
            <mxPoint x="170" y="-460" as="targetPoint" />
          </mxGeometry>
        </mxCell>
        <mxCell id="ZatKWv2WQP80qz8kFZHf-80" value="&lt;font style=&quot;font-size: 16px;&quot;&gt;&lt;b&gt;Network-Out&lt;/b&gt;&lt;/font&gt;" style="text;html=1;strokeColor=none;fillColor=none;align=center;verticalAlign=middle;whiteSpace=wrap;rounded=0;" parent="1" vertex="1">
          <mxGeometry x="187.75" y="-480" width="150" height="30" as="geometry" />
        </mxCell>
        <mxCell id="ZatKWv2WQP80qz8kFZHf-81" value="Route 53" style="text;html=1;strokeColor=none;fillColor=none;align=center;verticalAlign=middle;whiteSpace=wrap;rounded=0;" parent="1" vertex="1">
          <mxGeometry x="355" y="-1480" width="60" height="30" as="geometry" />
        </mxCell>
        <mxCell id="ZatKWv2WQP80qz8kFZHf-82" value="Cloud Front" style="text;html=1;strokeColor=none;fillColor=none;align=center;verticalAlign=middle;whiteSpace=wrap;rounded=0;" parent="1" vertex="1">
          <mxGeometry x="529" y="-1488" width="80" height="30" as="geometry" />
        </mxCell>
        <mxCell id="ZatKWv2WQP80qz8kFZHf-83" value="Static file (Video, Picture)" style="text;html=1;strokeColor=none;fillColor=none;align=center;verticalAlign=middle;whiteSpace=wrap;rounded=0;" parent="1" vertex="1">
          <mxGeometry x="700" y="-1410" width="110" height="30" as="geometry" />
        </mxCell>
        <mxCell id="ZatKWv2WQP80qz8kFZHf-84" value="Dynamic file" style="text;html=1;strokeColor=none;fillColor=none;align=center;verticalAlign=middle;whiteSpace=wrap;rounded=0;" parent="1" vertex="1">
          <mxGeometry x="465" y="-1400" width="90" height="30" as="geometry" />
        </mxCell>
      </root>
    </mxGraphModel>
  </diagram>
</mxfile>
